<svg id="Capa_1" data-name="Capa 1" xmlns="http://www.w3.org/2000/svg" viewBox="0 0 980.54 349.53"><defs><style>.cls-1{fill:#1b1c3b;}</style></defs><path class="cls-1" d="M118.6,85.14q3.18,1.71,34.21,12.45,27.23,9.7,40.95,19.81,19.85,15,19.86,35.71c0,20-6.77,35.63-20.28,46.86q-19.43,16.49-52.79,16.46H49.18V158h85.46c6.64,0,9.94-2.46,9.94-7.41q0-6.58-22.15-12.89c-20.87-5.92-35.27-11-43.31-15.39Q54.46,108.78,49.37,85.14Zm-69-15.86q3.38-25.29,23-39,19.07-13.49,49.2-13.51h84.45V69.28Z" transform="translate(-32.34 -10.98)"/><path class="cls-1" d="M234.08,16.72h63.75V69.29H234.08Zm63.75,199.71H234.08V85.13h63.75Z" transform="translate(-32.34 -10.98)"/><path class="cls-1" d="M483.85,29.5a99.86,99.86,0,0,1,39.24,43.07l-197.6.19V13.25h97.34q33.93,0,61,16.25M325.49,88.61h63.76V219.9H325.49ZM533.22,219.9H469.47V118a41.67,41.67,0,0,0-11.39-29.38H529a108.37,108.37,0,0,1,4.22,30.2Z" transform="translate(-32.34 -10.98)"/><path class="cls-1" d="M631.37,86.14A42,42,0,0,0,620,115.47c0,14.48,4.69,26,13.94,34.61a42.35,42.35,0,0,0,30,11.63c16,0,28.12-1,36.29-3v58.48a100.44,100.44,0,0,1-24.9,4.85q-5.26.19-22.16,0-35.88-.66-64.17-26.82-32.52-30.22-32.53-78.1a112.54,112.54,0,0,1,4.24-31ZM566.78,70.3Q579.65,43,606.15,27t60.71-16q37.14,0,65.19,15,29.41,15.81,41.4,44.36ZM779.35,217.23H713.09v-92.7c0-14.72-4.3-27.58-12.91-38.39H777a108.8,108.8,0,0,1,2.31,22.76Z" transform="translate(-32.34 -10.98)"/><path class="cls-1" d="M966.82,69.28H802.36V16.72H966.82ZM916.35,85.13H852.81v131.3h63.54Z" transform="translate(-32.34 -10.98)"/><path class="cls-1" d="M987.51,205.93a25.47,25.47,0,0,1,25.37,25.83c0,14.57-11.24,25.93-25.48,25.93a25.88,25.88,0,0,1,0-51.76Zm-.11,4c-11.33,0-20.64,9.73-20.64,21.79,0,12.27,9.31,21.89,20.75,21.89s20.63-9.62,20.63-21.76S999,210,987.51,210Zm-4.82,36.83H978V218a56.29,56.29,0,0,1,8.14-.63c4.35,0,7.22.85,8.94,2.16s2.62,3.21,2.62,6c0,3.8-2.5,6-5.6,7v.24c2.54.51,4.25,2.78,4.82,7a24.43,24.43,0,0,0,1.82,7.13H994c-.68-.93-1.38-3.6-2-7.37s-2.51-5-6.19-5h-3.2Zm0-16h3.33c3.79,0,7-1.36,7-4.95,0-2.53-1.84-5.05-7-5.05a20.28,20.28,0,0,0-3.33.24Z" transform="translate(-32.34 -10.98)"/><path class="cls-1" d="M36.43,284.34a10,10,0,0,1-2.92-7.49v-1.49a.67.67,0,0,1,.2-.48.7.7,0,0,1,.49-.2h5.2a.66.66,0,0,1,.48.2.63.63,0,0,1,.2.48v1.15a5.57,5.57,0,0,0,1.12,3.6,3.54,3.54,0,0,0,2.88,1.37A3.73,3.73,0,0,0,47,280.19a4.92,4.92,0,0,0,1.14-3.4,5,5,0,0,0-.63-2.57,8.14,8.14,0,0,0-1.77-2.06c-.76-.64-2-1.58-3.66-2.8a52.1,52.1,0,0,1-4.6-3.65,13.81,13.81,0,0,1-2.91-3.86,11.2,11.2,0,0,1-1.17-5.23,10.06,10.06,0,0,1,2.86-7.54,10.28,10.28,0,0,1,7.54-2.8,10.32,10.32,0,0,1,7.66,2.94,10.6,10.6,0,0,1,2.91,7.8v1.37a.68.68,0,0,1-.69.69H48.54a.66.66,0,0,1-.48-.2.64.64,0,0,1-.2-.49v-1.48a5.41,5.41,0,0,0-1.12-3.57A3.62,3.62,0,0,0,43.8,252a3.56,3.56,0,0,0-2.8,1.23,4.93,4.93,0,0,0-1.09,3.4,5.33,5.33,0,0,0,1.17,3.49,28,28,0,0,0,4.6,3.94,65.7,65.7,0,0,1,5.26,4.2,12.36,12.36,0,0,1,2.74,3.57,10.23,10.23,0,0,1,1,4.63,10.61,10.61,0,0,1-2.92,7.8,10.29,10.29,0,0,1-7.66,2.94A10.46,10.46,0,0,1,36.43,284.34Z" transform="translate(-32.34 -10.98)"/><path class="cls-1" d="M60.71,252.39a4.06,4.06,0,0,1,2.92-7,3.84,3.84,0,0,1,2.88,1.14,4,4,0,0,1,1.12,2.92,3.91,3.91,0,0,1-1.15,2.91,3.84,3.84,0,0,1-2.85,1.15A3.93,3.93,0,0,1,60.71,252.39Zm-.14,34.15a.7.7,0,0,1-.2-.49V258.22a.66.66,0,0,1,.2-.48.63.63,0,0,1,.49-.2h5.25a.68.68,0,0,1,.69.68v27.83a.68.68,0,0,1-.69.69H61.06A.66.66,0,0,1,60.57,286.54Z" transform="translate(-32.34 -10.98)"/><path class="cls-1" d="M75.28,284.91A7.17,7.17,0,0,1,72.6,279v-.4a.68.68,0,0,1,.68-.68H78.2a.68.68,0,0,1,.68.68v.29a2.91,2.91,0,0,0,1.06,2.28,3.84,3.84,0,0,0,2.6.92,3.16,3.16,0,0,0,2.34-.86,2.9,2.9,0,0,0,.86-2.17,2.66,2.66,0,0,0-.74-1.91A5.47,5.47,0,0,0,83.4,276c-.57-.26-1.6-.7-3.09-1.31a16.35,16.35,0,0,1-5.34-3.2,7.52,7.52,0,0,1-2.09-5.77,7.93,7.93,0,0,1,2.55-6.26,10,10,0,0,1,6.88-2.26,10,10,0,0,1,7.06,2.38,8.2,8.2,0,0,1,2.6,6.37.66.66,0,0,1-.2.48.62.62,0,0,1-.48.2H86.48a.62.62,0,0,1-.48-.2.66.66,0,0,1-.2-.48v-.35a3.08,3.08,0,0,0-.94-2.28,3.28,3.28,0,0,0-2.38-.92,3.1,3.1,0,0,0-2.37.95,3.16,3.16,0,0,0-.88,2.25,2.61,2.61,0,0,0,.68,1.83,5.12,5.12,0,0,0,1.55,1.17q.86.44,2.85,1.29a32.23,32.23,0,0,1,4,1.91,9.1,9.1,0,0,1,2.86,2.69,7.29,7.29,0,0,1,1.23,4.31,7.45,7.45,0,0,1-2.69,6.06,11,11,0,0,1-7.26,2.23A11.1,11.1,0,0,1,75.28,284.91Z" transform="translate(-32.34 -10.98)"/><path class="cls-1" d="M109.43,262a.66.66,0,0,1-.49.2H105.4a.26.26,0,0,0-.29.29v15a4,4,0,0,0,.75,2.77,2.78,2.78,0,0,0,2.22.72h.4a.64.64,0,0,1,.49.2.66.66,0,0,1,.2.48v4.4a.7.7,0,0,1-.2.49.68.68,0,0,1-.49.2h-1.94a10,10,0,0,1-5.86-1.43q-2-1.43-2-5.37V262.51c0-.19-.09-.29-.28-.29h-2a.64.64,0,0,1-.49-.2.66.66,0,0,1-.2-.48v-3.32a.66.66,0,0,1,.2-.48.64.64,0,0,1,.49-.2h2c.19,0,.28-.1.28-.29V251a.66.66,0,0,1,.2-.48.7.7,0,0,1,.49-.2h5a.66.66,0,0,1,.48.2.62.62,0,0,1,.2.48v6.29a.26.26,0,0,0,.29.29h3.54a.68.68,0,0,1,.69.68v3.32A.66.66,0,0,1,109.43,262Z" transform="translate(-32.34 -10.98)"/><path class="cls-1" d="M134.17,274.36a.63.63,0,0,1-.48.21H121.06c-.19,0-.29.09-.29.28v2.57a4.36,4.36,0,0,0,1,2.92,3.16,3.16,0,0,0,2.52,1.14,3.29,3.29,0,0,0,2.25-.83,3.82,3.82,0,0,0,1.23-2.14.72.72,0,0,1,.75-.57l5.08.23a.69.69,0,0,1,.49.19.61.61,0,0,1,.14.55,8.9,8.9,0,0,1-2.91,6.14,10.51,10.51,0,0,1-7,2.14,10.51,10.51,0,0,1-7.4-2.48,8.74,8.74,0,0,1-2.72-6.77v-11.6a8.79,8.79,0,0,1,2.72-6.72,12,12,0,0,1,14.8,0,8.79,8.79,0,0,1,2.71,6.72v7.54A.66.66,0,0,1,134.17,274.36Zm-12.43-10.42a4.32,4.32,0,0,0-1,2.91v2.57a.26.26,0,0,0,.29.29h6.45a.26.26,0,0,0,.29-.29v-2.57a4.29,4.29,0,0,0-1-2.94,3.24,3.24,0,0,0-2.57-1.12A3.14,3.14,0,0,0,121.74,263.94Z" transform="translate(-32.34 -10.98)"/><path class="cls-1" d="M171.14,259.68a12,12,0,0,1,1.92,7.23v19.14a.68.68,0,0,1-.69.69h-5.2a.68.68,0,0,1-.68-.69V267.36a5.75,5.75,0,0,0-.86-3.37,2.72,2.72,0,0,0-2.34-1.2,3,3,0,0,0-2.52,1.2,5.37,5.37,0,0,0-.91,3.32v18.74a.68.68,0,0,1-.69.69H154a.68.68,0,0,1-.68-.69V267.36a5.6,5.6,0,0,0-.89-3.37,2.74,2.74,0,0,0-2.31-1.2,3,3,0,0,0-2.52,1.2,5.37,5.37,0,0,0-.91,3.32v18.74a.68.68,0,0,1-.69.69h-5.2a.68.68,0,0,1-.68-.69V258.22a.68.68,0,0,1,.68-.68H146a.68.68,0,0,1,.69.68v.92c0,.11,0,.19.11.22s.15,0,.23-.11a7.05,7.05,0,0,1,2.57-1.66,8.3,8.3,0,0,1,2.8-.51,6.64,6.64,0,0,1,6.23,3.6c.11.15.29.09.51-.17a6.72,6.72,0,0,1,2.89-2.63,8.39,8.39,0,0,1,3.52-.8A6.54,6.54,0,0,1,171.14,259.68Z" transform="translate(-32.34 -10.98)"/><path class="cls-1" d="M196.49,259.71a9.06,9.06,0,0,1,2.8,6.91v19.43a.68.68,0,0,1-.69.69h-5.26a.68.68,0,0,1-.68-.69V285a.23.23,0,0,0-.12-.23c-.07,0-.15,0-.22.11a7.26,7.26,0,0,1-5.83,2.34,9.33,9.33,0,0,1-5.75-1.85q-2.48-1.86-2.48-6.77,0-5.15,3-7.32t8.14-2.17h3a.26.26,0,0,0,.29-.29v-1.48a5,5,0,0,0-1-3.29,3.22,3.22,0,0,0-2.57-1.23,2.74,2.74,0,0,0-2,.78,3.34,3.34,0,0,0-1,2.08.67.67,0,0,1-.75.69H179.8q-.69,0-.63-.69a8.62,8.62,0,0,1,3.06-6.23,10.39,10.39,0,0,1,6.94-2.34A10.28,10.28,0,0,1,196.49,259.71Zm-5.15,20.91a3.7,3.7,0,0,0,1.32-3v-3.25a.26.26,0,0,0-.29-.29h-3a4.56,4.56,0,0,0-3.14,1.06,3.85,3.85,0,0,0-1.2,3.06,3.52,3.52,0,0,0,.91,2.65,3.24,3.24,0,0,0,2.35.89A4.56,4.56,0,0,0,191.34,280.62Z" transform="translate(-32.34 -10.98)"/><path class="cls-1" d="M234.57,246.94a.66.66,0,0,1,.49-.2h5.2a.68.68,0,0,1,.68.68v38.63a.68.68,0,0,1-.68.69h-6a.71.71,0,0,1-.74-.57L225,261.94c0-.12-.1-.16-.2-.15a.18.18,0,0,0-.14.2l.06,24.06a.68.68,0,0,1-.69.69h-5.2a.68.68,0,0,1-.69-.69V247.42a.68.68,0,0,1,.69-.68h5.89a.72.72,0,0,1,.74.57L234,271.36c0,.12.1.17.2.15a.18.18,0,0,0,.14-.2V247.42A.66.66,0,0,1,234.57,246.94Z" transform="translate(-32.34 -10.98)"/><path class="cls-1" d="M265.06,259.71a9,9,0,0,1,2.8,6.91v19.43a.7.7,0,0,1-.2.49.68.68,0,0,1-.49.2h-5.25a.68.68,0,0,1-.49-.2.7.7,0,0,1-.2-.49V285a.24.24,0,0,0-.11-.23c-.08,0-.16,0-.23.11a7.26,7.26,0,0,1-5.83,2.34,9.3,9.3,0,0,1-5.74-1.85q-2.49-1.86-2.49-6.77,0-5.15,3-7.32t8.14-2.17h3a.26.26,0,0,0,.29-.29v-1.48a5,5,0,0,0-1-3.29,3.2,3.2,0,0,0-2.57-1.23,2.74,2.74,0,0,0-2,.78,3.39,3.39,0,0,0-1,2.08.67.67,0,0,1-.74.69h-5.55q-.68,0-.63-.69a8.62,8.62,0,0,1,3.06-6.23,10.39,10.39,0,0,1,6.94-2.34A10.28,10.28,0,0,1,265.06,259.71Zm-5.14,20.91a3.72,3.72,0,0,0,1.31-3v-3.25a.26.26,0,0,0-.29-.29h-3a4.56,4.56,0,0,0-3.14,1.06,3.85,3.85,0,0,0-1.2,3.06,3.52,3.52,0,0,0,.91,2.65,3.24,3.24,0,0,0,2.35.89A4.61,4.61,0,0,0,259.92,280.62Z" transform="translate(-32.34 -10.98)"/><path class="cls-1" d="M276,284.68a8.81,8.81,0,0,1-2.71-6.8V266.34a8.79,8.79,0,0,1,2.71-6.72,10.42,10.42,0,0,1,7.4-2.54,10.65,10.65,0,0,1,7.43,2.49,8.13,8.13,0,0,1,2.74,6.31v.8a.68.68,0,0,1-.68.68l-5.26.23a.61.61,0,0,1-.69-.68v-.57a3.49,3.49,0,0,0-1-2.49,3.35,3.35,0,0,0-2.54-1.06,3.11,3.11,0,0,0-2.51,1.15,4.32,4.32,0,0,0-1,2.91v10.57a4.36,4.36,0,0,0,1,2.92,3.13,3.13,0,0,0,2.51,1.14,3.31,3.31,0,0,0,2.54-1.06,3.54,3.54,0,0,0,1-2.54v-.57a.68.68,0,0,1,.69-.69l5.26.06a.66.66,0,0,1,.48.2.63.63,0,0,1,.2.48v1a8.11,8.11,0,0,1-2.74,6.38,10.81,10.81,0,0,1-7.43,2.42A10.45,10.45,0,0,1,276,284.68Z" transform="translate(-32.34 -10.98)"/><path class="cls-1" d="M299.57,252.39a4.06,4.06,0,0,1,2.92-7,3.84,3.84,0,0,1,2.88,1.14,4,4,0,0,1,1.12,2.92,3.94,3.94,0,0,1-1.14,2.91,3.87,3.87,0,0,1-2.86,1.15A4,4,0,0,1,299.57,252.39Zm-.14,34.15a.7.7,0,0,1-.2-.49V258.22a.66.66,0,0,1,.2-.48.64.64,0,0,1,.49-.2h5.25a.64.64,0,0,1,.49.2.66.66,0,0,1,.2.48v27.83a.7.7,0,0,1-.2.49.68.68,0,0,1-.49.2h-5.25A.68.68,0,0,1,299.43,286.54Z" transform="translate(-32.34 -10.98)"/><path class="cls-1" d="M314.69,284.68a8.82,8.82,0,0,1-2.72-6.8V266.39a8.79,8.79,0,0,1,2.75-6.77,12.21,12.21,0,0,1,14.91,0,8.79,8.79,0,0,1,2.74,6.77v11.49a8.81,8.81,0,0,1-2.71,6.8c-1.81,1.68-4.31,2.51-7.51,2.51A10.52,10.52,0,0,1,314.69,284.68Zm10.06-4.37a4.28,4.28,0,0,0,1-2.95V266.85a4.28,4.28,0,0,0-1-2.91,3.29,3.29,0,0,0-2.6-1.15,3.24,3.24,0,0,0-2.58,1.12,4.34,4.34,0,0,0-1,2.94v10.51a4.37,4.37,0,0,0,1,2.95,3.27,3.27,0,0,0,2.58,1.11A3.35,3.35,0,0,0,324.75,280.31Z" transform="translate(-32.34 -10.98)"/><path class="cls-1" d="M356.4,259.57q1.92,2.48,1.92,7.05v19.43a.68.68,0,0,1-.69.69h-5.26a.68.68,0,0,1-.68-.69V267.14a5.25,5.25,0,0,0-.86-3.2,2.87,2.87,0,0,0-2.46-1.15,3,3,0,0,0-2.57,1.2,5.37,5.37,0,0,0-.91,3.32v18.74a.68.68,0,0,1-.69.69H339a.66.66,0,0,1-.49-.2.7.7,0,0,1-.2-.49V258.22a.66.66,0,0,1,.2-.48.63.63,0,0,1,.49-.2h5.25a.68.68,0,0,1,.69.68v1.14c0,.12.05.19.14.21s.2-.05.32-.21a6.73,6.73,0,0,1,5.42-2.28A6.65,6.65,0,0,1,356.4,259.57Z" transform="translate(-32.34 -10.98)"/><path class="cls-1" d="M381.75,259.71a9.06,9.06,0,0,1,2.8,6.91v19.43a.68.68,0,0,1-.69.69H378.6a.68.68,0,0,1-.68-.69V285a.23.23,0,0,0-.12-.23c-.07,0-.15,0-.22.11a7.26,7.26,0,0,1-5.83,2.34,9.33,9.33,0,0,1-5.75-1.85q-2.47-1.86-2.48-6.77,0-5.15,3-7.32t8.14-2.17h3a.26.26,0,0,0,.29-.29v-1.48a5,5,0,0,0-1-3.29,3.22,3.22,0,0,0-2.57-1.23,2.74,2.74,0,0,0-2,.78,3.34,3.34,0,0,0-1,2.08.67.67,0,0,1-.75.69h-5.54q-.69,0-.63-.69a8.62,8.62,0,0,1,3.06-6.23,10.39,10.39,0,0,1,6.94-2.34A10.28,10.28,0,0,1,381.75,259.71Zm-5.15,20.91a3.7,3.7,0,0,0,1.32-3v-3.25a.26.26,0,0,0-.29-.29h-3a4.56,4.56,0,0,0-3.14,1.06,3.85,3.85,0,0,0-1.2,3.06,3.52,3.52,0,0,0,.91,2.65,3.24,3.24,0,0,0,2.35.89A4.56,4.56,0,0,0,376.6,280.62Z" transform="translate(-32.34 -10.98)"/><path class="cls-1" d="M390.4,286.54a.7.7,0,0,1-.2-.49V247.42a.68.68,0,0,1,.69-.68h5.26a.68.68,0,0,1,.68.68v38.63a.68.68,0,0,1-.68.69h-5.26A.7.7,0,0,1,390.4,286.54Z" transform="translate(-32.34 -10.98)"/><path class="cls-1" d="M433.8,259.57a10.09,10.09,0,0,1,2.12,6.77v11.54a10.2,10.2,0,0,1-2.12,6.86,7.4,7.4,0,0,1-5.94,2.45,8,8,0,0,1-2.68-.48,6.47,6.47,0,0,1-2.46-1.57c-.08-.08-.15-.1-.23-.06a.23.23,0,0,0-.12.23v11.54a.69.69,0,0,1-.19.49.7.7,0,0,1-.49.2h-5.26a.68.68,0,0,1-.68-.69V258.22a.68.68,0,0,1,.68-.68h5.26a.66.66,0,0,1,.49.2.65.65,0,0,1,.19.48v.69a.18.18,0,0,0,.15.2c.09,0,.2-.05.31-.2a7.18,7.18,0,0,1,5-1.83A7.37,7.37,0,0,1,433.8,259.57Zm-5.42,4.31a3.23,3.23,0,0,0-2.58-1.14,3.07,3.07,0,0,0-2.48,1.14,4.5,4.5,0,0,0-.95,3v10.57a4.38,4.38,0,0,0,.95,2.94,3.08,3.08,0,0,0,2.48,1.12,3.24,3.24,0,0,0,2.58-1.12,4.34,4.34,0,0,0,1-2.94V266.85A4.46,4.46,0,0,0,428.38,263.88Z" transform="translate(-32.34 -10.98)"/><path class="cls-1" d="M459.06,259.71a9,9,0,0,1,2.8,6.91v19.43a.7.7,0,0,1-.2.49.66.66,0,0,1-.48.2h-5.26a.68.68,0,0,1-.69-.69V285a.24.24,0,0,0-.11-.23c-.08,0-.15,0-.23.11a7.25,7.25,0,0,1-5.83,2.34,9.32,9.32,0,0,1-5.74-1.85q-2.49-1.86-2.49-6.77,0-5.15,3-7.32t8.15-2.17h3c.19,0,.28-.1.28-.29v-1.48a5,5,0,0,0-1-3.29,3.2,3.2,0,0,0-2.57-1.23,2.76,2.76,0,0,0-2,.78,3.44,3.44,0,0,0-1,2.08.66.66,0,0,1-.74.69h-5.54q-.69,0-.63-.69a8.65,8.65,0,0,1,3.05-6.23,10.42,10.42,0,0,1,6.95-2.34A10.26,10.26,0,0,1,459.06,259.71Zm-5.14,20.91a3.72,3.72,0,0,0,1.31-3v-3.25c0-.19-.09-.29-.28-.29h-3a4.57,4.57,0,0,0-3.15,1.06,3.85,3.85,0,0,0-1.2,3.06,3.52,3.52,0,0,0,.92,2.65,3.23,3.23,0,0,0,2.34.89A4.61,4.61,0,0,0,453.92,280.62Z" transform="translate(-32.34 -10.98)"/><path class="cls-1" d="M482.09,257.76a.76.76,0,0,1,.34.86l-.91,5.32c0,.45-.31.59-.8.4a5.21,5.21,0,0,0-1.49-.23,4.15,4.15,0,0,0-1.25.17,3.6,3.6,0,0,0-2.6,1.8,6.79,6.79,0,0,0-1,3.74V286a.66.66,0,0,1-.2.49.7.7,0,0,1-.49.2h-5.26a.66.66,0,0,1-.48-.2.63.63,0,0,1-.2-.49V258.22a.68.68,0,0,1,.68-.68h5.26a.68.68,0,0,1,.69.68v2.63c0,.15,0,.24.11.26s.13-.05.17-.2q1.54-3.72,5-3.72A4.3,4.3,0,0,1,482.09,257.76Z" transform="translate(-32.34 -10.98)"/><path class="cls-1" d="M503.8,259.71a9,9,0,0,1,2.8,6.91v19.43a.68.68,0,0,1-.68.69h-5.26a.68.68,0,0,1-.68-.69V285a.23.23,0,0,0-.12-.23c-.07,0-.15,0-.23.11a7.23,7.23,0,0,1-5.83,2.34,9.32,9.32,0,0,1-5.74-1.85c-1.66-1.24-2.48-3.5-2.48-6.77q0-5.15,3-7.32t8.14-2.17h3a.26.26,0,0,0,.29-.29v-1.48a5,5,0,0,0-1-3.29,3.23,3.23,0,0,0-2.57-1.23,2.74,2.74,0,0,0-2,.78,3.4,3.4,0,0,0-1,2.08.66.66,0,0,1-.74.69h-5.54q-.69,0-.63-.69a8.62,8.62,0,0,1,3.06-6.23,10.37,10.37,0,0,1,6.94-2.34A10.24,10.24,0,0,1,503.8,259.71Zm-5.14,20.91a3.7,3.7,0,0,0,1.32-3v-3.25a.26.26,0,0,0-.29-.29h-3a4.54,4.54,0,0,0-3.14,1.06,3.85,3.85,0,0,0-1.2,3.06,3.52,3.52,0,0,0,.91,2.65,3.23,3.23,0,0,0,2.34.89A4.57,4.57,0,0,0,498.66,280.62Z" transform="translate(-32.34 -10.98)"/><path class="cls-1" d="M525,286.54a.7.7,0,0,1-.2-.49V247.42a.68.68,0,0,1,.69-.68h5.26a.62.62,0,0,1,.48.2.66.66,0,0,1,.2.48v38.63a.7.7,0,0,1-.2.49.66.66,0,0,1-.48.2h-5.26A.7.7,0,0,1,525,286.54Z" transform="translate(-32.34 -10.98)"/><path class="cls-1" d="M554.83,259.71a9,9,0,0,1,2.8,6.91v19.43a.68.68,0,0,1-.68.69h-5.26a.68.68,0,0,1-.69-.69V285c0-.12,0-.19-.11-.23s-.15,0-.23.11a7.25,7.25,0,0,1-5.83,2.34,9.32,9.32,0,0,1-5.74-1.85q-2.49-1.86-2.49-6.77,0-5.15,3-7.32t8.15-2.17h3c.19,0,.28-.1.28-.29v-1.48a5,5,0,0,0-1-3.29,3.24,3.24,0,0,0-2.58-1.23,2.76,2.76,0,0,0-2,.78,3.44,3.44,0,0,0-1,2.08.66.66,0,0,1-.74.69h-5.54q-.69,0-.63-.69a8.62,8.62,0,0,1,3.06-6.23,10.37,10.37,0,0,1,6.94-2.34A10.24,10.24,0,0,1,554.83,259.71Zm-5.14,20.91a3.69,3.69,0,0,0,1.31-3v-3.25c0-.19-.09-.29-.28-.29h-3a4.57,4.57,0,0,0-3.15,1.06,3.85,3.85,0,0,0-1.2,3.06,3.52,3.52,0,0,0,.92,2.65,3.23,3.23,0,0,0,2.34.89A4.61,4.61,0,0,0,549.69,280.62Z" transform="translate(-32.34 -10.98)"/><path class="cls-1" d="M50.14,359.42l-1.08-6c0-.19-.12-.28-.35-.28H40.37c-.23,0-.34.09-.34.28l-1.09,6a.64.64,0,0,1-.74.63H33c-.54,0-.75-.24-.63-.74l8.46-38.63a.68.68,0,0,1,.74-.63h6.06a.68.68,0,0,1,.74.63l8.46,38.63v.23q0,.51-.63.51H50.88A.65.65,0,0,1,50.14,359.42Zm-8.8-11.48h6.34c.23,0,.33-.1.29-.29l-3.31-18q-.06-.18-.18-.18c-.07,0-.13.06-.17.18l-3.25,18C41,347.84,41.11,347.94,41.34,347.94Z" transform="translate(-32.34 -10.98)"/><path class="cls-1" d="M74.57,320.25a.68.68,0,0,1,.49-.2h5.25a.68.68,0,0,1,.49.2.7.7,0,0,1,.2.49v38.63a.66.66,0,0,1-.2.48.64.64,0,0,1-.49.2H75.06a.64.64,0,0,1-.49-.2.66.66,0,0,1-.2-.48v-.69a.25.25,0,0,0-.11-.23.19.19,0,0,0-.23.06,7.11,7.11,0,0,1-5.15,2A7.35,7.35,0,0,1,62.94,358a10.16,10.16,0,0,1-2.11-6.75v-11.6a10,10,0,0,1,2.14-6.8,7.42,7.42,0,0,1,5.91-2.45,8.09,8.09,0,0,1,2.69.48A6.62,6.62,0,0,1,74,332.45a.18.18,0,0,0,.23.06.24.24,0,0,0,.11-.23V320.74A.7.7,0,0,1,74.57,320.25Zm-1.34,33.66a4,4,0,0,0,1.14-2.37V339.37A4,4,0,0,0,73.23,337a3.12,3.12,0,0,0-2.29-.89,3.25,3.25,0,0,0-2.57,1.11,4.34,4.34,0,0,0-1,2.95v10.57a4.29,4.29,0,0,0,1,2.94,3.25,3.25,0,0,0,2.57,1.12A3.16,3.16,0,0,0,73.23,353.91Z" transform="translate(-32.34 -10.98)"/><path class="cls-1" d="M118.4,333a11.94,11.94,0,0,1,1.91,7.22v19.15a.68.68,0,0,1-.68.68h-5.2a.68.68,0,0,1-.69-.68V340.68a5.73,5.73,0,0,0-.85-3.37,2.75,2.75,0,0,0-2.35-1.2,3,3,0,0,0-2.51,1.2,5.36,5.36,0,0,0-.92,3.31v18.75a.68.68,0,0,1-.68.68h-5.2a.68.68,0,0,1-.69-.68V340.68a5.58,5.58,0,0,0-.88-3.37,2.76,2.76,0,0,0-2.32-1.2,3,3,0,0,0-2.51,1.2,5.36,5.36,0,0,0-.92,3.31v18.75a.68.68,0,0,1-.68.68H88a.68.68,0,0,1-.69-.68V331.54a.68.68,0,0,1,.69-.69h5.2a.68.68,0,0,1,.68.69v.91a.23.23,0,0,0,.12.23c.07,0,.15,0,.23-.11a6.93,6.93,0,0,1,2.57-1.66,8.26,8.26,0,0,1,2.8-.51,6.65,6.65,0,0,1,6.23,3.6q.17.22.51-.18a6.74,6.74,0,0,1,2.89-2.63,8.37,8.37,0,0,1,3.51-.79A6.53,6.53,0,0,1,118.4,333Z" transform="translate(-32.34 -10.98)"/><path class="cls-1" d="M127.06,325.71a4.11,4.11,0,0,1,5.8-5.83,4,4,0,0,1,1.11,2.91,4,4,0,0,1-1.14,2.92,3.89,3.89,0,0,1-2.86,1.14A3.94,3.94,0,0,1,127.06,325.71Zm-.15,34.14a.66.66,0,0,1-.2-.48V331.54a.68.68,0,0,1,.69-.69h5.26a.68.68,0,0,1,.68.69v27.83a.68.68,0,0,1-.68.68H127.4A.66.66,0,0,1,126.91,359.85Z" transform="translate(-32.34 -10.98)"/><path class="cls-1" d="M158,332.88c1.28,1.66,1.91,4,1.91,7.06v19.43a.68.68,0,0,1-.68.68H154a.68.68,0,0,1-.68-.68V340.45a5.27,5.27,0,0,0-.86-3.2,2.89,2.89,0,0,0-2.46-1.14,3,3,0,0,0-2.57,1.2,5.36,5.36,0,0,0-.91,3.31v18.75a.68.68,0,0,1-.69.68h-5.26a.68.68,0,0,1-.68-.68V331.54a.68.68,0,0,1,.68-.69h5.26a.68.68,0,0,1,.69.69v1.14c0,.12,0,.18.14.2s.2-.05.31-.2a6.76,6.76,0,0,1,5.43-2.28A6.66,6.66,0,0,1,158,332.88Z" transform="translate(-32.34 -10.98)"/><path class="cls-1" d="M166.66,325.71a4.11,4.11,0,0,1,5.8-5.83,4,4,0,0,1,1.11,2.91,4,4,0,0,1-1.14,2.92,3.89,3.89,0,0,1-2.86,1.14A3.94,3.94,0,0,1,166.66,325.71Zm-.15,34.14a.66.66,0,0,1-.2-.48V331.54a.68.68,0,0,1,.69-.69h5.26a.68.68,0,0,1,.68.69v27.83a.68.68,0,0,1-.68.68H167A.66.66,0,0,1,166.51,359.85Z" transform="translate(-32.34 -10.98)"/><path class="cls-1" d="M181.23,358.22a7.15,7.15,0,0,1-2.69-5.88v-.4a.68.68,0,0,1,.69-.69h4.91a.68.68,0,0,1,.49.2.7.7,0,0,1,.2.49v.28a2.89,2.89,0,0,0,1.06,2.29,3.82,3.82,0,0,0,2.6.91,3.16,3.16,0,0,0,2.34-.85,3,3,0,0,0,.86-2.17,2.65,2.65,0,0,0-.75-1.92,5.48,5.48,0,0,0-1.6-1.17c-.57-.27-1.6-.7-3.08-1.31a16.68,16.68,0,0,1-5.35-3.2c-1.39-1.3-2.08-3.22-2.08-5.78a7.94,7.94,0,0,1,2.54-6.25,10,10,0,0,1,6.89-2.26,10.1,10.1,0,0,1,7.06,2.37,8.22,8.22,0,0,1,2.6,6.37.68.68,0,0,1-.2.49.7.7,0,0,1-.49.2h-4.8a.7.7,0,0,1-.49-.2.68.68,0,0,1-.2-.49v-.34a3.06,3.06,0,0,0-.94-2.29,3.31,3.31,0,0,0-2.37-.91,3.09,3.09,0,0,0-2.37.94,3.19,3.19,0,0,0-.89,2.26,2.6,2.6,0,0,0,.69,1.83,5.42,5.42,0,0,0,1.54,1.17c.57.29,1.52.71,2.86,1.29a31.51,31.51,0,0,1,4,1.91,9.06,9.06,0,0,1,2.85,2.69,7.29,7.29,0,0,1,1.23,4.31,7.47,7.47,0,0,1-2.68,6.06,13,13,0,0,1-14.46.05Z" transform="translate(-32.34 -10.98)"/><path class="cls-1" d="M215.37,335.34a.66.66,0,0,1-.48.2h-3.55a.24.24,0,0,0-.28.28v15a4,4,0,0,0,.74,2.77,2.82,2.82,0,0,0,2.23.71h.4a.68.68,0,0,1,.69.69v4.4a.68.68,0,0,1-.69.68h-1.94a9.89,9.89,0,0,1-5.86-1.43q-2-1.42-2-5.37V335.82c0-.19-.1-.28-.29-.28h-2a.66.66,0,0,1-.48-.2.64.64,0,0,1-.2-.49v-3.31a.68.68,0,0,1,.68-.69h2c.19,0,.29-.09.29-.28v-6.29a.68.68,0,0,1,.68-.68h5a.68.68,0,0,1,.69.68v6.29a.24.24,0,0,0,.28.28h3.55a.68.68,0,0,1,.68.69v3.31A.64.64,0,0,1,215.37,335.34Z" transform="translate(-32.34 -10.98)"/><path class="cls-1" d="M234.89,331.08a.75.75,0,0,1,.34.86l-.91,5.31c0,.46-.31.59-.8.4a5.58,5.58,0,0,0-1.49-.23,4.17,4.17,0,0,0-1.26.18,3.64,3.64,0,0,0-2.6,1.8,6.85,6.85,0,0,0-1,3.74v16.17a.68.68,0,0,1-.68.69h-5.26a.68.68,0,0,1-.69-.69V331.54a.68.68,0,0,1,.69-.69h5.26a.68.68,0,0,1,.68.69v2.63c0,.15,0,.23.12.25s.13,0,.17-.2c1-2.47,2.7-3.71,5-3.71A4.3,4.3,0,0,1,234.89,331.08Z" transform="translate(-32.34 -10.98)"/><path class="cls-1" d="M256.6,333a9,9,0,0,1,2.8,6.92v19.43a.68.68,0,0,1-.68.68h-5.26a.68.68,0,0,1-.69-.68v-1.09a.25.25,0,0,0-.11-.23c-.08,0-.15,0-.23.12a7.25,7.25,0,0,1-5.83,2.34,9.33,9.33,0,0,1-5.74-1.86q-2.49-1.84-2.49-6.77c0-3.43,1-5.86,3-7.31s4.72-2.17,8.15-2.17h3c.19,0,.28-.1.28-.29v-1.49a4.92,4.92,0,0,0-1-3.28,3.2,3.2,0,0,0-2.57-1.23,2.79,2.79,0,0,0-2,.77,3.47,3.47,0,0,0-1,2.09.66.66,0,0,1-.74.68h-5.54c-.46,0-.67-.23-.63-.68a8.65,8.65,0,0,1,3.05-6.23,10.42,10.42,0,0,1,6.95-2.34A10.24,10.24,0,0,1,256.6,333Zm-5.14,20.92a3.72,3.72,0,0,0,1.31-3v-3.26a.24.24,0,0,0-.28-.28h-3a4.61,4.61,0,0,0-3.15,1.05,3.88,3.88,0,0,0-1.2,3.06,3.55,3.55,0,0,0,.92,2.66,3.23,3.23,0,0,0,2.34.89A4.66,4.66,0,0,0,251.46,353.94Z" transform="translate(-32.34 -10.98)"/><path class="cls-1" d="M267.54,358a8.83,8.83,0,0,1-2.71-6.8V339.65a8.75,8.75,0,0,1,2.71-6.71,10.38,10.38,0,0,1,7.4-2.54,10.63,10.63,0,0,1,7.43,2.48,8.15,8.15,0,0,1,2.75,6.32v.8a.66.66,0,0,1-.2.48.7.7,0,0,1-.49.2l-5.26.23a.61.61,0,0,1-.68-.69v-.57a3.51,3.51,0,0,0-1-2.48,3.35,3.35,0,0,0-2.55-1.06,3.16,3.16,0,0,0-2.51,1.14,4.36,4.36,0,0,0-1,2.92v10.57a4.32,4.32,0,0,0,1,2.91,3.13,3.13,0,0,0,2.51,1.15,3.39,3.39,0,0,0,2.55-1.06,3.6,3.6,0,0,0,1-2.54v-.58a.62.62,0,0,1,.2-.48.66.66,0,0,1,.48-.2l5.26.06a.68.68,0,0,1,.69.68v1a8.1,8.1,0,0,1-2.75,6.37,10.8,10.8,0,0,1-7.43,2.43A10.5,10.5,0,0,1,267.54,358Z" transform="translate(-32.34 -10.98)"/><path class="cls-1" d="M291.12,325.71a4.11,4.11,0,0,1,5.8-5.83,4,4,0,0,1,1.11,2.91,4,4,0,0,1-1.14,2.92,3.89,3.89,0,0,1-2.86,1.14A3.94,3.94,0,0,1,291.12,325.71ZM291,359.85a.66.66,0,0,1-.2-.48V331.54a.68.68,0,0,1,.69-.69h5.26a.68.68,0,0,1,.68.69v27.83a.68.68,0,0,1-.68.68h-5.26A.66.66,0,0,1,291,359.85Z" transform="translate(-32.34 -10.98)"/><path class="cls-1" d="M306.23,358a8.83,8.83,0,0,1-2.71-6.8V339.71a8.77,8.77,0,0,1,2.74-6.77,12.21,12.21,0,0,1,14.91,0,8.78,8.78,0,0,1,2.75,6.77V351.2a8.84,8.84,0,0,1-2.72,6.8,12.42,12.42,0,0,1-15,0Zm10.06-4.38a4.26,4.26,0,0,0,1-2.94V340.17a4.33,4.33,0,0,0-1-2.92,3.31,3.31,0,0,0-2.6-1.14,3.23,3.23,0,0,0-2.57,1.11,4.34,4.34,0,0,0-1,2.95v10.51a4.29,4.29,0,0,0,1,2.94,3.21,3.21,0,0,0,2.57,1.12A3.33,3.33,0,0,0,316.29,353.62ZM310.49,327c-.12-.15-.1-.35.06-.57l3.37-5.89a.85.85,0,0,1,.85-.46h4.12c.3,0,.49.09.57.26a.61.61,0,0,1-.11.6l-4.23,5.89a.94.94,0,0,1-.8.39h-3.26A.66.66,0,0,1,310.49,327Z" transform="translate(-32.34 -10.98)"/><path class="cls-1" d="M348,332.88q1.91,2.49,1.91,7.06v19.43a.66.66,0,0,1-.2.48.63.63,0,0,1-.49.2h-5.25a.64.64,0,0,1-.49-.2.66.66,0,0,1-.2-.48V340.45a5.2,5.2,0,0,0-.86-3.2,2.88,2.88,0,0,0-2.45-1.14,3,3,0,0,0-2.57,1.2,5.36,5.36,0,0,0-.92,3.31v18.75a.66.66,0,0,1-.2.48.62.62,0,0,1-.48.2h-5.26a.68.68,0,0,1-.69-.68V331.54a.68.68,0,0,1,.69-.69h5.26a.66.66,0,0,1,.48.2.7.7,0,0,1,.2.49v1.14c0,.12.05.18.14.2s.2-.05.32-.2a7.62,7.62,0,0,1,11.06.2Z" transform="translate(-32.34 -10.98)"/><path class="cls-1" d="M381.89,320.25a.66.66,0,0,1,.49-.2h5.25a.68.68,0,0,1,.69.69v38.63a.68.68,0,0,1-.69.68h-5.25a.63.63,0,0,1-.49-.2.66.66,0,0,1-.2-.48v-.69a.25.25,0,0,0-.11-.23.19.19,0,0,0-.23.06,7.11,7.11,0,0,1-5.15,2,7.35,7.35,0,0,1-5.94-2.51,10.16,10.16,0,0,1-2.11-6.75v-11.6a10,10,0,0,1,2.14-6.8,7.42,7.42,0,0,1,5.91-2.45,8.09,8.09,0,0,1,2.69.48,6.62,6.62,0,0,1,2.46,1.57.18.18,0,0,0,.23.06.24.24,0,0,0,.11-.23V320.74A.7.7,0,0,1,381.89,320.25Zm-1.34,33.66a4,4,0,0,0,1.14-2.37V339.37a4,4,0,0,0-1.14-2.37,3.12,3.12,0,0,0-2.29-.89,3.25,3.25,0,0,0-2.57,1.11,4.34,4.34,0,0,0-1,2.95v10.57a4.29,4.29,0,0,0,1,2.94,3.25,3.25,0,0,0,2.57,1.12A3.16,3.16,0,0,0,380.55,353.91Z" transform="translate(-32.34 -10.98)"/><path class="cls-1" d="M414.23,347.68a.62.62,0,0,1-.48.2H401.12a.26.26,0,0,0-.29.29v2.57a4.37,4.37,0,0,0,1,2.91,3.14,3.14,0,0,0,2.52,1.15,3.34,3.34,0,0,0,2.26-.83,3.89,3.89,0,0,0,1.22-2.15.73.73,0,0,1,.75-.57l5.08.23a.68.68,0,0,1,.49.2.6.6,0,0,1,.14.54,8.86,8.86,0,0,1-2.91,6.15,12.44,12.44,0,0,1-14.43-.34,8.75,8.75,0,0,1-2.72-6.78v-11.6a8.76,8.76,0,0,1,2.72-6.71,12,12,0,0,1,14.8,0,8.75,8.75,0,0,1,2.71,6.71v7.55A.62.62,0,0,1,414.23,347.68ZM401.8,337.25a4.41,4.41,0,0,0-1,2.92v2.57c0,.19.1.28.29.28h6.46a.24.24,0,0,0,.28-.28v-2.57a4.34,4.34,0,0,0-1-2.95,3.26,3.26,0,0,0-2.57-1.11A3.16,3.16,0,0,0,401.8,337.25Z" transform="translate(-32.34 -10.98)"/><path class="cls-1" d="M454.12,320.25a.7.7,0,0,1,.2.49v4.34a.7.7,0,0,1-.2.49.68.68,0,0,1-.49.2h-7.25c-.19,0-.29.09-.29.28v33.32a.66.66,0,0,1-.2.48.62.62,0,0,1-.48.2h-5.26a.68.68,0,0,1-.69-.68V326.05a.24.24,0,0,0-.28-.28h-6.86a.68.68,0,0,1-.69-.69v-4.34a.68.68,0,0,1,.69-.69h21.31A.68.68,0,0,1,454.12,320.25Z" transform="translate(-32.34 -10.98)"/><path class="cls-1" d="M460.21,325.71a4.11,4.11,0,0,1,5.8-5.83,4,4,0,0,1,1.11,2.91,4,4,0,0,1-1.14,2.92,4.22,4.22,0,0,1-5.77,0Zm-.15,34.14a.66.66,0,0,1-.2-.48V331.54a.68.68,0,0,1,.69-.69h5.26a.66.66,0,0,1,.48.2.7.7,0,0,1,.2.49v27.83a.66.66,0,0,1-.2.48.62.62,0,0,1-.48.2h-5.26A.66.66,0,0,1,460.06,359.85Z" transform="translate(-32.34 -10.98)"/><path class="cls-1" d="M492.58,347.68a.66.66,0,0,1-.49.2H479.46c-.19,0-.28.1-.28.29v2.57a4.32,4.32,0,0,0,1,2.91,3.12,3.12,0,0,0,2.51,1.15,3.32,3.32,0,0,0,2.26-.83,3.85,3.85,0,0,0,1.23-2.15.71.71,0,0,1,.74-.57l5.09.23a.66.66,0,0,1,.48.2.6.6,0,0,1,.15.54,8.87,8.87,0,0,1-2.92,6.15c-1.67,1.43-4,2.14-7,2.14a10.58,10.58,0,0,1-7.4-2.48,8.74,8.74,0,0,1-2.71-6.78v-11.6a8.75,8.75,0,0,1,2.71-6.71,12,12,0,0,1,14.8,0,8.76,8.76,0,0,1,2.72,6.71v7.55A.66.66,0,0,1,492.58,347.68Zm-12.43-10.43a4.36,4.36,0,0,0-1,2.92v2.57a.24.24,0,0,0,.28.28h6.46c.19,0,.29-.09.29-.28v-2.57a4.34,4.34,0,0,0-1-2.95,3.23,3.23,0,0,0-2.57-1.11A3.14,3.14,0,0,0,480.15,337.25Z" transform="translate(-32.34 -10.98)"/><path class="cls-1" d="M512.84,331.08a.77.77,0,0,1,.34.86l-.92,5.31c0,.46-.3.59-.8.4a5.51,5.51,0,0,0-1.48-.23,4.17,4.17,0,0,0-1.26.18,3.62,3.62,0,0,0-2.6,1.8,6.76,6.76,0,0,0-1,3.74v16.17a.7.7,0,0,1-.2.49.68.68,0,0,1-.49.2h-5.25a.68.68,0,0,1-.69-.69V331.54a.68.68,0,0,1,.69-.69h5.25a.68.68,0,0,1,.49.2.7.7,0,0,1,.2.49v2.63c0,.15,0,.23.11.25s.14,0,.18-.2c1-2.47,2.7-3.71,5-3.71A4.36,4.36,0,0,1,512.84,331.08Z" transform="translate(-32.34 -10.98)"/><path class="cls-1" d="M531.86,331.08a.76.76,0,0,1,.35.86l-.92,5.31c0,.46-.3.59-.8.4a5.51,5.51,0,0,0-1.48-.23,4.17,4.17,0,0,0-1.26.18,3.6,3.6,0,0,0-2.6,1.8,6.76,6.76,0,0,0-1,3.74v16.17a.68.68,0,0,1-.69.69h-5.25a.68.68,0,0,1-.49-.2.7.7,0,0,1-.2-.49V331.54a.7.7,0,0,1,.2-.49.68.68,0,0,1,.49-.2h5.25a.68.68,0,0,1,.69.69v2.63c0,.15,0,.23.11.25s.14,0,.17-.2q1.55-3.71,5-3.71A4.3,4.3,0,0,1,531.86,331.08Z" transform="translate(-32.34 -10.98)"/><path class="cls-1" d="M553.58,333a9.09,9.09,0,0,1,2.8,6.92v19.43a.68.68,0,0,1-.69.68h-5.26a.62.62,0,0,1-.48-.2.66.66,0,0,1-.2-.48v-1.09a.24.24,0,0,0-.12-.23c-.07,0-.15,0-.22.12a7.26,7.26,0,0,1-5.83,2.34,9.36,9.36,0,0,1-5.75-1.86q-2.48-1.84-2.48-6.77c0-3.43,1-5.86,3-7.31s4.71-2.17,8.14-2.17h3a.26.26,0,0,0,.29-.29v-1.49a4.92,4.92,0,0,0-1-3.28,3.22,3.22,0,0,0-2.57-1.23,2.78,2.78,0,0,0-2,.77,3.36,3.36,0,0,0-1,2.09.67.67,0,0,1-.75.68h-5.54c-.46,0-.66-.23-.63-.68a8.62,8.62,0,0,1,3.06-6.23,10.39,10.39,0,0,1,6.94-2.34A10.28,10.28,0,0,1,553.58,333Zm-5.15,20.92a3.7,3.7,0,0,0,1.32-3v-3.26c0-.19-.1-.28-.29-.28h-3a4.6,4.6,0,0,0-3.14,1.05,3.88,3.88,0,0,0-1.2,3.06,3.54,3.54,0,0,0,.91,2.66,3.24,3.24,0,0,0,2.35.89A4.61,4.61,0,0,0,548.43,353.94Z" transform="translate(-32.34 -10.98)"/><path class="cls-1" d="M564,358.22a7.14,7.14,0,0,1-2.68-5.88v-.4a.68.68,0,0,1,.68-.69H567a.68.68,0,0,1,.68.69v.28a2.92,2.92,0,0,0,1.06,2.29,3.84,3.84,0,0,0,2.6.91,3.16,3.16,0,0,0,2.34-.85,2.92,2.92,0,0,0,.86-2.17,2.68,2.68,0,0,0-.74-1.92,5.61,5.61,0,0,0-1.6-1.17c-.57-.27-1.6-.7-3.09-1.31a16.52,16.52,0,0,1-5.34-3.2,7.53,7.53,0,0,1-2.09-5.78,7.91,7.91,0,0,1,2.55-6.25,10,10,0,0,1,6.88-2.26,10.08,10.08,0,0,1,7.06,2.37,8.22,8.22,0,0,1,2.6,6.37.68.68,0,0,1-.2.49.66.66,0,0,1-.49.2h-4.8a.66.66,0,0,1-.48-.2.64.64,0,0,1-.2-.49v-.34a3.1,3.1,0,0,0-.94-2.29,3.32,3.32,0,0,0-2.38-.91,3.09,3.09,0,0,0-2.37.94,3.18,3.18,0,0,0-.88,2.26,2.64,2.64,0,0,0,.68,1.83,5.46,5.46,0,0,0,1.55,1.17c.57.29,1.52.71,2.85,1.29a30.87,30.87,0,0,1,4,1.91A9,9,0,0,1,580,347.8a7.29,7.29,0,0,1,1.23,4.31,7.47,7.47,0,0,1-2.69,6.06,13,13,0,0,1-14.46.05Z" transform="translate(-32.34 -10.98)"/></svg>